<svg width="42" height="43" viewBox="0 0 42 43" fill="none" xmlns="http://www.w3.org/2000/svg">
<path d="M12.373 0.548828H29.4228C35.9179 0.548828 41.1953 6.0538 41.1953 12.8292V30.6145C41.1952 33.8714 39.9549 36.9949 37.7472 39.298C35.5394 41.601 32.545 42.8948 29.4228 42.8948H12.373C5.87789 42.8948 0.600586 37.3898 0.600586 30.6145V12.8292C0.600586 9.57221 1.84089 6.44866 4.04866 4.14565C6.25642 1.84264 9.25079 0.548828 12.373 0.548828ZM11.9671 4.78342C10.0291 4.78342 8.17057 5.58648 6.80023 7.01594C5.4299 8.44539 4.66005 10.3841 4.66005 12.4057V31.0379C4.66005 35.2513 7.92792 38.6602 11.9671 38.6602H29.8287C31.7667 38.6602 33.6253 37.8571 34.9956 36.4277C36.3659 34.9982 37.1358 33.0595 37.1358 31.0379V12.4057C37.1358 8.19227 33.8679 4.78342 29.8287 4.78342H11.9671ZM31.554 7.95937C32.2269 7.95937 32.8723 8.23821 33.3481 8.73455C33.8239 9.23089 34.0912 9.90406 34.0912 10.606C34.0912 11.3079 33.8239 11.9811 33.3481 12.4774C32.8723 12.9738 32.2269 13.2526 31.554 13.2526C30.8811 13.2526 30.2358 12.9738 29.76 12.4774C29.2842 11.9811 29.0168 11.3079 29.0168 10.606C29.0168 9.90406 29.2842 9.23089 29.76 8.73455C30.2358 8.23821 30.8811 7.95937 31.554 7.95937ZM20.8979 11.1353C23.5895 11.1353 26.1709 12.2507 28.0741 14.236C29.9774 16.2214 31.0466 18.9141 31.0466 21.7218C31.0466 24.5295 29.9774 27.2222 28.0741 29.2076C26.1709 31.1929 23.5895 32.3083 20.8979 32.3083C18.2063 32.3083 15.625 31.1929 13.7217 29.2076C11.8185 27.2222 10.7493 24.5295 10.7493 21.7218C10.7493 18.9141 11.8185 16.2214 13.7217 14.236C15.625 12.2507 18.2063 11.1353 20.8979 11.1353ZM20.8979 15.3699C19.283 15.3699 17.7341 16.0391 16.5922 17.2303C15.4503 18.4215 14.8087 20.0372 14.8087 21.7218C14.8087 23.4064 15.4503 25.0221 16.5922 26.2133C17.7341 27.4045 19.283 28.0737 20.8979 28.0737C22.5129 28.0737 24.0617 27.4045 25.2036 26.2133C26.3456 25.0221 26.9871 23.4064 26.9871 21.7218C26.9871 20.0372 26.3456 18.4215 25.2036 17.2303C24.0617 16.0391 22.5129 15.3699 20.8979 15.3699Z" fill="#fff"/>
</svg>
