<svg width="42" height="45" viewBox="0 0 42 45" fill="none" xmlns="http://www.w3.org/2000/svg">
<path fill-rule="evenodd" clip-rule="evenodd" d="M5.79173 0.960938C4.31135 0.960938 2.89161 1.57438 1.84482 2.66633C0.798038 3.75827 0.209961 5.23926 0.209961 6.78351C0.209961 8.32775 0.798038 9.80874 1.84482 10.9007C2.89161 11.9926 4.31135 12.6061 5.79173 12.6061C7.2721 12.6061 8.69185 11.9926 9.73863 10.9007C10.7854 9.80874 11.3735 8.32775 11.3735 6.78351C11.3735 5.23926 10.7854 3.75827 9.73863 2.66633C8.69185 1.57438 7.2721 0.960938 5.79173 0.960938ZM3.25456 6.78351C3.25456 6.08158 3.52187 5.4084 3.99768 4.91206C4.47349 4.41572 5.11883 4.13688 5.79173 4.13688C6.46462 4.13688 7.10996 4.41572 7.58577 4.91206C8.06158 5.4084 8.32889 6.08158 8.32889 6.78351C8.32889 7.48543 8.06158 8.15861 7.58577 8.65495C7.10996 9.15129 6.46462 9.43013 5.79173 9.43013C5.11883 9.43013 4.47349 9.15129 3.99768 8.65495C3.52187 8.15861 3.25456 7.48543 3.25456 6.78351ZM0.209961 15.2527C0.209961 14.8315 0.370345 14.4276 0.655832 14.1298C0.941319 13.832 1.32852 13.6647 1.73226 13.6647H9.85119C10.2549 13.6647 10.6421 13.832 10.9276 14.1298C11.2131 14.4276 11.3735 14.8315 11.3735 15.2527V42.7776C11.3735 43.1987 11.2131 43.6026 10.9276 43.9004C10.6421 44.1982 10.2549 44.3655 9.85119 44.3655H1.73226C1.32852 44.3655 0.941319 44.1982 0.655832 43.9004C0.370345 43.6026 0.209961 43.1987 0.209961 42.7776V15.2527ZM3.25456 16.8407V41.1896H8.32889V16.8407H3.25456ZM14.4181 15.2527C14.4181 14.8315 14.5785 14.4276 14.864 14.1298C15.1495 13.832 15.5367 13.6647 15.9404 13.6647H24.0593C24.4631 13.6647 24.8503 13.832 25.1357 14.1298C25.4212 14.4276 25.5816 14.8315 25.5816 15.2527V16.1716L26.4646 15.7757C27.9869 15.097 29.6019 14.6719 31.2507 14.5159C36.8832 13.9823 41.8195 18.598 41.8195 24.5265V42.7776C41.8195 43.1987 41.6591 43.6026 41.3736 43.9004C41.0881 44.1982 40.7009 44.3655 40.2972 44.3655H32.1783C31.7745 44.3655 31.3873 44.1982 31.1018 43.9004C30.8163 43.6026 30.656 43.1987 30.656 42.7776V27.9565C30.656 27.2546 30.3886 26.5814 29.9128 26.085C29.437 25.5887 28.7917 25.3099 28.1188 25.3099C27.4459 25.3099 26.8006 25.5887 26.3247 26.085C25.8489 26.5814 25.5816 27.2546 25.5816 27.9565V42.7776C25.5816 43.1987 25.4212 43.6026 25.1357 43.9004C24.8503 44.1982 24.4631 44.3655 24.0593 44.3655H15.9404C15.5367 44.3655 15.1495 44.1982 14.864 43.9004C14.5785 43.6026 14.4181 43.1987 14.4181 42.7776V15.2527ZM17.4627 16.8407V41.1896H22.537V27.9565C22.537 26.4122 23.1251 24.9312 24.1719 23.8393C25.2187 22.7474 26.6384 22.1339 28.1188 22.1339C29.5992 22.1339 31.0189 22.7474 32.0657 23.8393C33.1125 24.9312 33.7006 26.4122 33.7006 27.9565V41.1896H38.7749V24.5265C38.7749 20.4951 35.4035 17.3107 31.5287 17.6791C30.1976 17.8054 28.8936 18.1484 27.6641 18.6954L24.6601 20.0399C24.4284 20.1437 24.1756 20.1859 23.9245 20.1626C23.6733 20.1393 23.4316 20.0512 23.2211 19.9064C23.0106 19.7615 22.8379 19.5644 22.7185 19.3327C22.5991 19.101 22.5367 18.842 22.537 18.579V16.8407H17.4627Z" fill="#fff"/>
</svg>
